<?xml version="1.0" encoding="UTF-8"?>
<svg id="Layer_2_copy_6" xmlns="http://www.w3.org/2000/svg" version="1.1" viewBox="0 0 1200 260">
  <!-- Generator: Adobe Illustrator 30.2.1, SVG Export Plug-In . SVG Version: 2.1.1 Build 1)  -->
  <defs>
    <style>
      .st0 {
        fill: #fff;
      }

      .st1 {
        fill: #ffc000;
      }
    </style>
  </defs>
  <path class="st1" d="M307.128,131.465c0,56.61-40.45,103.76-94.02,114.13-7.2,1.41-14.64,2.14-22.25,2.14-13.47,0-26.41-2.29-38.44-6.51-18.98-6.64-35.7-18.06-48.72-32.82-6.53-7.37-12.12-15.57-16.61-24.43-8-15.77-12.5-33.62-12.5-52.51,0-64.21,52.06-116.27,116.27-116.27s116.27,52.06,116.27,116.27Z"/>
  <path d="M252.918,137.195c-9.76,20.75-25.32,39.43-60.4,54.58-5.81,5.6-8.5,14.13-7.88,19.31.62,5.19,3.32,23.87,3.32,23.87,0,0,21.47,4.99,25.15,10.64-7.2,1.41-14.64,2.14-22.25,2.14-13.47,0-26.41-2.29-38.44-6.51,3.81-3.02,13.38-5.01,24.34-6.06-.21-3.32-1.46-8.51-1.46-8.51,0,0-13.69-12.25-8.71-15.77,4.98-3.53,8.29-8.94,8.29-13.09-11.08,1.21-40.51,6.76-71.18,10.61-6.08.76-12.22,1.46-18.27,2.05-37.35,10.79-68.28,21.17-73.78,20.55,28.3-17.6,53.5-33.29,75.44-47.03,53.37-33.44,87.42-55.34,99.62-65.05,17.23-13.69,13.08-31.33-.62-40.47-17.64-2.49-24.7-2.69-34.45,3.53,4.98-11.21,11.41-19.09,32.79-20.96,16.19-11,35.07-16.19,54.79,2.7,19.72,18.88,23.45,52.71,13.7,73.47Z"/>
  <g>
    <path d="M449.123,120.152h-27.791c-.371-2.853-1.131-5.428-2.279-7.726-1.148-2.297-2.668-4.261-4.557-5.892-1.891-1.63-4.123-2.88-6.697-3.751-2.576-.87-5.42-1.307-8.531-1.307-5.521,0-10.273,1.354-14.256,4.058-3.984,2.705-7.041,6.614-9.172,11.728s-3.195,11.302-3.195,18.563c0,7.559,1.084,13.887,3.252,18.98,2.166,5.096,5.225,8.931,9.17,11.505,3.945,2.576,8.623,3.863,14.033,3.863,3.039,0,5.809-.389,8.311-1.167,2.5-.778,4.705-1.918,6.613-3.419,1.908-1.5,3.482-3.334,4.725-5.502,1.24-2.168,2.102-4.622,2.584-7.364l27.791.167c-.482,5.039-1.938,10.004-4.363,14.896-2.428,4.891-5.752,9.347-9.977,13.366-4.225,4.021-9.365,7.217-15.424,9.588s-12.998,3.558-20.814,3.558c-10.303,0-19.52-2.27-27.652-6.809s-14.553-11.162-19.258-19.87c-4.705-8.707-7.059-19.305-7.059-31.792s2.391-23.14,7.17-31.848c4.779-8.707,11.246-15.32,19.396-19.842,8.152-4.521,17.287-6.781,27.402-6.781,6.891,0,13.264.955,19.119,2.863,5.854,1.908,11.004,4.688,15.451,8.337s8.059,8.124,10.838,13.422c2.779,5.3,4.502,11.357,5.17,18.175Z"/>
    <path d="M480.234,78.912v113.828h-27.18v-113.828h27.18Z"/>
    <path d="M525.629,194.353c-8.93,0-16.627-1.77-23.094-5.309-6.465-3.538-11.43-8.596-14.895-15.173s-5.197-14.404-5.197-23.482c0-8.818,1.742-16.535,5.225-23.149s8.393-11.764,14.729-15.451c6.336-3.687,13.803-5.53,22.398-5.53,6.078,0,11.635.944,16.674,2.834s9.395,4.688,13.062,8.393c3.668,3.706,6.521,8.273,8.559,13.701,2.037,5.429,3.057,11.644,3.057,18.646v6.781h-74.199v-15.785h48.91c-.037-2.89-.721-5.465-2.055-7.726-1.334-2.26-3.16-4.029-5.475-5.308-2.316-1.278-4.975-1.918-7.977-1.918-3.039,0-5.762.677-8.17,2.029-2.41,1.353-4.318,3.187-5.725,5.502-1.41,2.316-2.15,4.938-2.225,7.865v16.062c0,3.483.686,6.53,2.057,9.143s3.316,4.641,5.836,6.086,5.521,2.168,9.004,2.168c2.408,0,4.594-.334,6.559-1.001s3.65-1.647,5.059-2.945c1.408-1.297,2.463-2.891,3.168-4.78l24.955.723c-1.037,5.596-3.307,10.459-6.809,14.59-3.502,4.132-8.086,7.337-13.756,9.615-5.67,2.279-12.229,3.419-19.676,3.419Z"/>
    <path d="M651.174,107.369l-29.291,85.371h-31.125l-29.234-85.371h28.623l15.73,58.804h.889l15.785-58.804h28.623Z"/>
    <path d="M689.734,194.353c-8.93,0-16.627-1.77-23.094-5.309-6.465-3.538-11.43-8.596-14.895-15.173s-5.197-14.404-5.197-23.482c0-8.818,1.742-16.535,5.225-23.149s8.393-11.764,14.729-15.451c6.336-3.687,13.803-5.53,22.398-5.53,6.078,0,11.635.944,16.674,2.834s9.395,4.688,13.062,8.393c3.668,3.706,6.521,8.273,8.559,13.701,2.037,5.429,3.057,11.644,3.057,18.646v6.781h-74.199v-15.785h48.91c-.037-2.89-.721-5.465-2.055-7.726-1.334-2.26-3.16-4.029-5.475-5.308-2.316-1.278-4.975-1.918-7.977-1.918-3.039,0-5.762.677-8.17,2.029-2.41,1.353-4.318,3.187-5.725,5.502-1.41,2.316-2.15,4.938-2.225,7.865v16.062c0,3.483.686,6.53,2.057,9.143s3.316,4.641,5.836,6.086,5.521,2.168,9.004,2.168c2.408,0,4.594-.334,6.559-1.001s3.65-1.647,5.059-2.945c1.408-1.297,2.463-2.891,3.168-4.78l24.955.723c-1.037,5.596-3.307,10.459-6.809,14.59-3.502,4.132-8.086,7.337-13.756,9.615-5.67,2.279-12.229,3.419-19.676,3.419Z"/>
    <path d="M732.465,192.74v-85.371h26.4v15.562h.889c1.557-5.632,4.094-9.828,7.615-12.589,3.52-2.76,7.613-4.141,12.283-4.141,1.258,0,2.557.083,3.891.25s2.574.417,3.723.75v23.622c-1.297-.445-2.992-.797-5.086-1.057-2.094-.259-3.955-.389-5.586-.389-3.223,0-6.123.714-8.697,2.14-2.576,1.427-4.596,3.41-6.059,5.947-1.465,2.538-2.195,5.512-2.195,8.921v46.354h-27.178Z"/>
    <path d="M911.908,120.152h-27.789c-.371-2.853-1.131-5.428-2.279-7.726-1.148-2.297-2.668-4.261-4.559-5.892-1.889-1.63-4.121-2.88-6.697-3.751-2.574-.87-5.418-1.307-8.531-1.307-5.521,0-10.273,1.354-14.256,4.058-3.984,2.705-7.041,6.614-9.17,11.728-2.133,5.113-3.197,11.302-3.197,18.563,0,7.559,1.084,13.887,3.252,18.98,2.168,5.096,5.225,8.931,9.17,11.505,3.947,2.576,8.625,3.863,14.035,3.863,3.037,0,5.809-.389,8.309-1.167,2.502-.778,4.705-1.918,6.615-3.419,1.906-1.5,3.482-3.334,4.723-5.502,1.242-2.168,2.104-4.622,2.586-7.364l27.789.167c-.482,5.039-1.936,10.004-4.363,14.896-2.426,4.891-5.752,9.347-9.977,13.366-4.223,4.021-9.365,7.217-15.424,9.588-6.057,2.371-12.996,3.558-20.814,3.558-10.301,0-19.518-2.27-27.65-6.809-8.135-4.539-14.553-11.162-19.258-19.87-4.707-8.707-7.059-19.305-7.059-31.792s2.389-23.14,7.168-31.848c4.781-8.707,11.246-15.32,19.398-19.842,8.15-4.521,17.285-6.781,27.4-6.781,6.893,0,13.266.955,19.121,2.863,5.854,1.908,11.004,4.688,15.451,8.337,4.445,3.649,8.059,8.124,10.838,13.422,2.779,5.3,4.502,11.357,5.168,18.175Z"/>
    <path d="M915.842,192.74v-85.371h26.4v15.562h.889c1.557-5.632,4.094-9.828,7.615-12.589,3.52-2.76,7.613-4.141,12.283-4.141,1.258,0,2.557.083,3.891.25s2.574.417,3.723.75v23.622c-1.297-.445-2.992-.797-5.086-1.057-2.094-.259-3.955-.389-5.586-.389-3.223,0-6.123.714-8.697,2.14-2.576,1.427-4.596,3.41-6.059,5.947-1.465,2.538-2.195,5.512-2.195,8.921v46.354h-27.178Z"/>
    <path d="M1009.871,194.353c-8.969,0-16.666-1.844-23.094-5.53-6.43-3.687-11.375-8.838-14.84-15.452-3.465-6.613-5.197-14.292-5.197-23.037s1.732-16.479,5.197-23.094,8.41-11.764,14.84-15.451c6.428-3.687,14.125-5.53,23.094-5.53s16.664,1.844,23.094,5.53c6.428,3.688,11.375,8.837,14.84,15.451,3.463,6.614,5.195,14.312,5.195,23.094s-1.732,16.424-5.195,23.037c-3.465,6.614-8.412,11.766-14.84,15.452-6.43,3.687-14.127,5.53-23.094,5.53ZM1010.037,173.843c3.26,0,6.021-1,8.281-3.001s3.992-4.78,5.197-8.337c1.203-3.558,1.807-7.67,1.807-12.339,0-4.743-.604-8.893-1.807-12.45-1.205-3.557-2.938-6.336-5.197-8.337s-5.021-3.001-8.281-3.001c-3.371,0-6.217,1-8.531,3.001-2.316,2.001-4.076,4.78-5.279,8.337-1.205,3.558-1.807,7.707-1.807,12.45,0,4.669.602,8.781,1.807,12.339,1.203,3.557,2.963,6.336,5.279,8.337,2.314,2.001,5.16,3.001,8.531,3.001Z"/>
    <path d="M1071.162,192.74l-22.232-85.371h27.291l11.504,54.69h.723l12.34-54.69h26.623l12.672,54.302h.723l11.172-54.302h27.289l-22.287,85.371h-29.068l-13.34-49.744h-.945l-13.338,49.744h-29.125Z"/>
  </g>
  <ellipse class="st0" cx="210.031" cy="62.398" rx="2.626" ry="1.232"/>
</svg>