<?xml version="1.0" encoding="UTF-8"?>
<svg id="Layer_1_copy_8" xmlns="http://www.w3.org/2000/svg" version="1.1" viewBox="0 0 1728.6 266.32">
  <!-- Generator: Adobe Illustrator 30.5.1, SVG Export Plug-In . SVG Version: 2.1.4 Build 3)  -->
  <defs>
    <style>
      .st0 {
        fill: #fff;
      }

      .st1 {
        fill: #ffbc00;
      }
    </style>
  </defs>
  <g>
    <path class="st1" d="M333.927,134.182c0,63.204-45.161,115.845-104.971,127.423-8.039,1.574-16.345,2.389-24.842,2.389-15.039,0-29.486-2.557-42.917-7.268-21.191-7.413-39.858-20.164-54.395-36.643-7.291-8.228-13.532-17.383-18.545-27.275-8.932-17.607-13.956-37.536-13.956-58.626C74.302,62.494,132.426,4.37,204.115,4.37s129.813,58.124,129.813,129.813Z"/>
    <path d="M273.403,140.58c-10.897,23.167-28.269,44.023-67.435,60.937-6.487,6.252-9.49,15.776-8.798,21.559.692,5.795,3.707,26.65,3.707,26.65,0,0,23.971,5.571,28.079,11.879-8.039,1.574-16.345,2.389-24.842,2.389-15.039,0-29.486-2.557-42.917-7.268,4.254-3.372,14.938-5.594,27.175-6.766-.234-3.707-1.63-9.501-1.63-9.501,0,0-15.285-13.677-9.724-17.607,5.56-3.941,9.256-9.981,9.256-14.615-12.371,1.351-45.228,7.547-79.471,11.846-6.788.849-13.643,1.63-20.398,2.289-41.7,12.047-76.233,23.636-82.373,22.944,31.596-19.65,59.731-37.167,84.227-52.508,59.586-37.335,97.602-61.786,111.223-72.627,19.237-15.284,14.603-34.979-.692-45.184-19.695-2.78-27.577-3.003-38.463,3.941,5.56-12.516,12.739-21.313,36.609-23.401,18.076-12.281,39.155-18.076,61.172,3.014,22.017,21.079,26.181,58.849,15.296,82.027Z"/>
    <ellipse class="st0" cx="225.52" cy="57.07" rx="2.932" ry="1.375"/>
  </g>
  <g>
    <path d="M389.639,244.906c-12.469-12.463-18.697-28.981-18.697-49.557v-123.802c0-20.813,6.229-37.332,18.697-49.557,12.463-12.219,28.982-18.334,49.557-18.334,20.813,0,37.515,6.115,50.102,18.334,12.582,12.225,18.879,28.743,18.879,49.557v4.356c0,1.215-.425,2.304-1.271,3.268-.851.971-1.878,1.452-3.086,1.452l-33.764,1.452c-2.904,0-4.356-1.452-4.356-4.356v-9.076c0-8.47-2.423-15.367-7.262-20.694-4.845-5.32-11.255-7.987-19.242-7.987-7.748,0-14.039,2.667-18.878,7.987-4.845,5.327-7.262,12.225-7.262,20.694v129.974c0,8.475,2.417,15.373,7.262,20.694,4.839,5.326,11.13,7.986,18.878,7.986,7.987,0,14.397-2.66,19.242-7.986,4.839-5.321,7.262-12.22,7.262-20.694v-9.076c0-1.209.419-2.235,1.271-3.086.845-.846,1.872-1.271,3.086-1.271l33.764,1.452c1.208,0,2.235.426,3.086,1.271.846.851,1.271,1.877,1.271,3.086v4.356c0,20.575-6.297,37.094-18.879,49.557-12.587,12.469-29.288,18.697-50.102,18.697-20.574,0-37.094-6.229-49.557-18.697Z"/>
    <path d="M523.601,259.429c-.851-.846-1.271-1.872-1.271-3.086V10.918c0-1.208.42-2.235,1.271-3.086.846-.845,1.872-1.271,3.086-1.271h33.401c1.208,0,2.235.426,3.086,1.271.846.851,1.271,1.878,1.271,3.086v245.425c0,1.214-.425,2.24-1.271,3.086-.851.851-1.878,1.271-3.086,1.271h-33.401c-1.214,0-2.24-.42-3.086-1.271Z"/>
    <path d="M705.851,182.098c-.852.852-1.878,1.271-3.086,1.271h-80.235c-1.214,0-1.815.606-1.815,1.814v16.338c0,7.505,2.054,13.677,6.172,18.516,4.113,4.845,9.439,7.261,15.975,7.261,5.564,0,10.347-1.753,14.341-5.264,3.993-3.506,6.592-8.044,7.806-13.614.726-2.417,2.297-3.631,4.72-3.631l32.312,1.452c1.208,0,2.235.426,3.086,1.271.846.851,1.146,1.997.908,3.449-1.696,16.944-7.868,29.952-18.517,39.028-10.653,9.076-25.538,13.614-44.655,13.614-19.849,0-35.522-5.264-47.016-15.793-11.498-10.528-17.245-24.869-17.245-43.021v-73.7c0-17.665,5.747-31.887,17.245-42.659,11.493-10.767,27.167-16.155,47.016-16.155s35.517,5.389,47.016,16.155c11.493,10.772,17.245,24.994,17.245,42.659v47.923c0,1.214-.426,2.241-1.271,3.086ZM626.886,115.841c-4.118,4.845-6.172,11.017-6.172,18.516v16.337c0,1.215.602,1.815,1.815,1.815h41.025c1.208,0,1.815-.601,1.815-1.815v-16.337c0-7.743-2.06-13.978-6.172-18.697-4.119-4.72-9.564-7.08-16.338-7.08-6.535,0-11.861,2.423-15.975,7.262Z"/>
    <path d="M752.143,257.068l-44.292-177.533v-1.452c0-2.179,1.327-3.268,3.993-3.268h37.031c2.904,0,4.476,1.333,4.72,3.994l21.783,112.909c.238.727.602,1.09,1.09,1.09.481,0,.845-.363,1.089-1.09l21.42-112.909c.238-2.661,1.815-3.994,4.72-3.994l37.031.727c3.387,0,4.72,1.577,3.994,4.72l-43.93,176.807c-.727,2.423-2.422,3.631-5.083,3.631h-38.483c-2.666,0-4.356-1.208-5.083-3.631Z"/>
    <path d="M973.428,182.098c-.852.852-1.878,1.271-3.086,1.271h-80.235c-1.214,0-1.815.606-1.815,1.814v16.338c0,7.505,2.054,13.677,6.172,18.516,4.113,4.845,9.439,7.261,15.975,7.261,5.564,0,10.347-1.753,14.341-5.264,3.993-3.506,6.592-8.044,7.806-13.614.726-2.417,2.297-3.631,4.72-3.631l32.312,1.452c1.208,0,2.235.426,3.086,1.271.846.851,1.146,1.997.908,3.449-1.696,16.944-7.868,29.952-18.517,39.028-10.653,9.076-25.538,13.614-44.655,13.614-19.849,0-35.522-5.264-47.016-15.793-11.498-10.528-17.245-24.869-17.245-43.021v-73.7c0-17.665,5.747-31.887,17.245-42.659,11.493-10.767,27.167-16.155,47.016-16.155s35.517,5.389,47.016,16.155c11.493,10.772,17.245,24.994,17.245,42.659v47.923c0,1.214-.426,2.241-1.271,3.086ZM894.464,115.841c-4.118,4.845-6.172,11.017-6.172,18.516v16.337c0,1.215.602,1.815,1.815,1.815h41.025c1.208,0,1.815-.601,1.815-1.815v-16.337c0-7.743-2.06-13.978-6.172-18.697-4.119-4.72-9.564-7.08-16.338-7.08-6.535,0-11.861,2.423-15.975,7.262Z"/>
    <path d="M1080.345,76.631c1.935,1.214,2.66,3.029,2.179,5.445l-5.81,33.765c-.244,2.904-1.939,3.755-5.083,2.541-3.392-.964-6.534-1.452-9.438-1.452s-5.571.363-7.987,1.089c-6.779.971-12.287,4.782-16.52,11.437-4.237,6.66-6.354,14.585-6.354,23.78v102.744c0,1.214-.425,2.241-1.271,3.086-.851.851-1.878,1.271-3.086,1.271h-33.4c-1.215,0-2.241-.42-3.087-1.271-.851-.845-1.271-1.872-1.271-3.086V79.535c0-1.208.42-2.235,1.271-3.086.846-.845,1.872-1.271,3.087-1.271h33.4c1.208,0,2.235.426,3.086,1.271.846.851,1.271,1.878,1.271,3.086v16.7c0,.971.238,1.515.727,1.634.482.125.845-.301,1.089-1.271,6.535-15.73,17.183-23.599,31.949-23.599,6.534,0,11.617,1.214,15.248,3.631Z"/>
  </g>
  <g>
    <path d="M1165.104,245.036c-12.469-12.463-18.697-28.981-18.697-49.557v-123.802c0-20.813,6.229-37.332,18.697-49.557,12.463-12.219,28.982-18.334,49.557-18.334,20.813,0,37.515,6.115,50.102,18.334,12.582,12.225,18.879,28.743,18.879,49.557v4.356c0,1.215-.425,2.304-1.271,3.268-.851.971-1.878,1.452-3.086,1.452l-33.764,1.452c-2.904,0-4.356-1.452-4.356-4.356v-9.076c0-8.47-2.423-15.367-7.262-20.694-4.845-5.32-11.255-7.987-19.242-7.987-7.748,0-14.039,2.667-18.878,7.987-4.845,5.327-7.262,12.225-7.262,20.694v129.974c0,8.475,2.417,15.373,7.262,20.694,4.839,5.326,11.13,7.986,18.878,7.986,7.987,0,14.397-2.66,19.242-7.986,4.839-5.321,7.262-12.22,7.262-20.694v-9.076c0-1.209.419-2.235,1.271-3.086.845-.846,1.872-1.271,3.086-1.271l33.764,1.452c1.208,0,2.235.426,3.086,1.271.846.851,1.271,1.877,1.271,3.086v4.356c0,20.575-6.297,37.094-18.879,49.557-12.587,12.469-29.288,18.697-50.102,18.697-20.574,0-37.094-6.229-49.557-18.697Z"/>
    <path d="M1390.375,76.761c1.935,1.214,2.66,3.029,2.179,5.445l-5.81,33.765c-.244,2.904-1.939,3.755-5.083,2.541-3.392-.964-6.534-1.452-9.438-1.452s-5.571.363-7.987,1.089c-6.779.971-12.287,4.782-16.52,11.437-4.237,6.66-6.354,14.585-6.354,23.78v102.744c0,1.214-.425,2.241-1.271,3.086-.851.851-1.878,1.271-3.086,1.271h-33.4c-1.215,0-2.241-.42-3.087-1.271-.851-.845-1.271-1.872-1.271-3.086V79.665c0-1.208.42-2.235,1.271-3.086.846-.845,1.872-1.271,3.087-1.271h33.4c1.208,0,2.235.426,3.086,1.271.846.851,1.271,1.878,1.271,3.086v16.7c0,.971.238,1.515.727,1.634.482.125.845-.301,1.089-1.271,6.535-15.73,17.183-23.599,31.949-23.599,6.534,0,11.617,1.214,15.248,3.631Z"/>
    <path d="M1410.52,247.759c-11.498-10.647-17.245-25.051-17.245-43.203v-72.974c0-17.909,5.809-32.25,17.427-43.022,11.618-10.767,27.349-16.155,47.197-16.155,20.087,0,35.942,5.389,47.56,16.155,11.618,10.772,17.427,25.113,17.427,43.022v72.974c0,18.152-5.752,32.556-17.245,43.203-11.498,10.653-27.41,15.975-47.741,15.975-20.093,0-35.886-5.321-47.379-15.975ZM1474.418,219.985c4.232-4.72,6.354-10.948,6.354-18.697v-66.802c0-7.499-2.121-13.671-6.354-18.516-4.237-4.839-9.745-7.262-16.519-7.262s-12.225,2.36-16.338,7.08c-4.118,4.72-6.172,10.954-6.172,18.697v66.802c0,7.749,2.054,13.978,6.172,18.697,4.113,4.72,9.559,7.08,16.338,7.08s12.281-2.36,16.519-7.08Z"/>
    <path d="M1562.093,256.836l-38.847-177.171v-1.452c0-2.179,1.327-3.268,3.993-3.268h31.949c2.904,0,4.476,1.333,4.72,3.994l18.878,112.909c.238.727.602,1.09,1.09,1.09.481,0,.845-.363,1.089-1.09l19.968-112.909c.238-2.661,1.815-3.994,4.72-3.994h28.318c2.904,0,4.476,1.333,4.72,3.994l20.331,113.272c.238.727.602,1.089,1.089,1.089.482,0,.846-.362,1.09-1.089l19.241-113.272c.238-2.661,1.815-3.994,4.72-3.994l31.586.727c3.143,0,4.356,1.577,3.631,4.72l-38.847,176.444c-.488,2.666-2.06,3.993-4.72,3.993h-32.675c-2.905,0-4.481-1.327-4.72-3.993l-19.242-106.013c-.244-.726-.607-1.089-1.089-1.089-.488,0-.852.363-1.09,1.089l-18.879,106.013c-.243,2.666-1.814,3.993-4.72,3.993h-31.585c-2.667,0-4.238-1.327-4.72-3.993Z"/>
  </g>
</svg>